<?xml version="1.0" encoding="utf-8"?>
<!-- Generator: Adobe Illustrator 21.1.0, SVG Export Plug-In . SVG Version: 6.00 Build 0)  -->
<svg version="1.1" id="Layer_1" xmlns="http://www.w3.org/2000/svg" xmlns:xlink="http://www.w3.org/1999/xlink" x="0px" y="0px"
	 viewBox="0 0 182 104.8" enable-background="new 0 0 182 104.8" xml:space="preserve">
<title>construction</title>
<g id="Layer_2">
	<g id="Layer_1-2">
		<path fill="#E09105" d="M25.2,76.9c0,3.1,1.4,11.2,5.8,12.9c1.3,0.5,10.5,0.4,10.5,0.4c2.3,0,4.6-2.3,5.9-3.8
			c3.3,3.2,11.8,2.4,13,0.1c1.6,1.7,2.2,2.7,4,2.6l6.5-0.1c3.5,0,8.2-3,10.3-7.6l22.6,1c-1,9.2,4.3,22.3,15.3,22.3h6.8
			c5,0,10.9-5.9,12.7-14l3.3-0.3c2.7,7.3,9.7,9.5,17.2,8.9c8.2-0.6,14.5-9.8,13.8-19.1l8.9-4.2l0.1-7l-1.7-0.1l1.2-28.3
			c0.2-1.9-0.9-3.7-2.7-4.4c-10.4-4.4-37.9-4.2-37.9-4.2l-2.5-13.9c-0.2-1.9-0.8-3.6-4-4.9c-9.1-3.7-28.8-7-44.2-3.7
			c-4,0.8-4,1.8-5.1,3.4l0.1-6.2c-0.3-1.3-0.8-2.6-1.4-3.8c-1.5-3.3-2.9,0.3-3.2,1.6C78.4,3.4,72.2,0.1,64.3,0
			c-7.7-0.1-21.9,2.3-29.7,3.6c-2.3-0.1-5.7,1-7.1,2.8C24,6.4,20.4,6.8,17,7.8c-0.6,0.1-0.7,0.3-0.5,0.8l1.1,2.8l-1,8.6l-4.3-0.9
			c-0.8-0.2-1.1,0-1.2,0.6l-0.6,3.8c-0.2,1,0.1,1.2,0.4,1.5l5.4,4.1l-0.8,5.6L1.3,42.6C-0.1,43.3,0,44,0,44.5
			c0.3,3.8,2.8,6.5,4.8,8.8C6.5,55.2,7.9,54,7.9,54l8.6-6.1l0.4,6.1H8.2L5,61.2L4.7,79h3.5c0.2-7.2,1.7-15,6.8-16.1
			c1.3-0.2,2.7-0.2,4,0c3.2,0.3,5.5,5.5,5.7,7.2c0.1,0.9,0.6,1,1,0c1-2.8,2-5.1,4.4-6.3c1.3-0.6,2.6-0.6,5.1-0.3
			c0.6,0.1,1.1,0.3,1.6,0.7c3.3,2.2,4.9,6,4.7,12.8c-0.2,6.2-2.7,9.7-5.6,11.3h-1.9c4.1-3.2,4.3-8.1,4.6-12.4
			c0.4-5.7-2.5-12.2-6.6-12.2C28,63.7,25.3,70.3,25.2,76.9 M118.1,93.7c-4.3,0-7.7-3.9-7.7-8.8s3.6-8.8,7.7-8.8
			c4.6,0,7.7,3.6,7.7,8.8C125.9,89.8,122.4,93.7,118.1,93.7 M125.4,103c5.8-6.6,6.9-11.5,6.9-18.8c0-6.5-4.1-18.1-13-18.1
			c-5.8,0-9.5,3.7-12.2,8.2c2.2-5.7,6.7-8.5,10.7-8.8c8.9-0.7,14.7,0.3,18.4,9c4.3,10-0.1,20.3-2.9,23.9
			C131.3,100.6,128.5,102.3,125.4,103 M159.7,97.2c4.3-1.9,8.2-7.4,8.8-15.2l1.4-0.6C170.9,92.1,163.5,97.1,159.7,97.2 M162.7,75.2
			l-0.1-5.4l17.3,0.6v4.8L162.7,75.2z M154.3,65.2l0.3-5.4l4.9,0.3v5.3L154.3,65.2z M166.9,68.1l1-25.6l1.1,0.3l-1,25.3L166.9,68.1z
			 M171.5,68.2l1-24.9l0.9,0.3l-0.9,24.6L171.5,68.2z M174.9,68.3l1-24.6l0.7,0.2l-0.9,24.5L174.9,68.3z M130,29.1l-2-11.8l1.1,0.1
			l2,11.7H130z M97,75.9c0,0.8,0,1.6,0,2.3L80.8,77c-0.4-0.7-0.7-1.4-0.9-2.1C85.8,74.9,91.1,75.5,97,75.9 M79.5,73.1
			c-0.6-4.1,0.8-8.6,3.1-10.6l17.7,0.3c-1.8,3.5-2.9,7.3-3.3,11.1L79.5,73.1z M67.4,86.6c3.6-2,4.3-4.2,5.6-8.8h2.5
			C75.4,80.4,71.6,87.1,67.4,86.6 M71.8,86.6c3.1-2,5.3-5.1,6.2-8.7h1.8C78,83.2,73.8,86.6,71.8,86.6 M54.7,87
			c1.4-0.8,2.5-2,3.3-3.4l0.7,1C57.7,85.6,55.3,87.2,54.7,87 M41.2,88c4-3.7,4.7-9.6,4.5-15.2h3C48.9,78.2,47.8,86.8,41.2,88
			 M31.7,82.3c-1.6,0-3-2.8-3-6.2c0-2.5,1.3-6.2,3-6.2c1.7,0,3,2.5,3,6.2C34.7,79.5,33.4,82.3,31.7,82.3 M6.2,66.5l-0.1-5l2.8-5.9
			l31.7-0.1l0.2,2.5L12.2,58L6.2,66.5z M28.7,54v-4.2H32V54H28.7z M18.5,54.2l-1.4-19.1l0.2-2.3l2.7-0.4c0.5,10.2,3.7,14.3,5.3,21.7
			L18.5,54.2z M16.1,43.1l0.2,3l-9,6C7,50.9,6.6,49.8,6,48.8C9.4,46.9,12.6,44.7,16.1,43.1 M5.4,47.8c-1-1.4-2.1-2.7-3.2-4L15.5,36
			l0.3,3.3C12.2,42.4,9.1,45.2,5.4,47.8 M11.9,23.5l0.3-3.3l4.9,1.1c0.4,0.1,0.6-0.1,0.6-0.5l0.7-5.2L20,29.9L11.9,23.5z M42.7,70.6
			l0.1-13.9h3.9c-1.2,1.1-2,2.7-2,6c0,5.1,3.3,6.3,4.4,6.3l5.4,0.1v1.6L42.7,70.6z M47.9,68.1c-2.5-3.8-2-9.4,0.7-11.3h2.3
			c-1.6,2.1-2.6,7.9,0.4,11.4L47.9,68.1z M54,68.2c-2.4-2.9-2.2-8.3,0-11.3h4.4c-1.7,2.8-1.9,7.8,0.2,11.3H54z M61.9,68.2
			c-2.8-2-2.9-8.3,0-11.3h2.6c-1.8,3.6-1.7,7.8,0.2,11.3H61.9z M66.7,68.3c-1.1-0.1-2.4-2.3-2.2-5.9c0.2-3.1,1.6-5.6,3-5.5
			c0.9,0.1,2.4,2.2,2.2,5.9S67.7,68.4,66.7,68.3 M45.1,47.6c4.3,2.8,8.9,5.3,13.6,7.4l-8.4-0.4c-1.2,0-3.1-1.8-3.8-3.6L45.1,47.6z
			 M85.8,57.5v-2.6l22.1,0.6c-1.3,0.9-2.5,1.9-3.6,3l-17.5-0.2L85.8,57.5z M78.4,54.4l1-34l5.5,0.1l-1,34L78.4,54.4z M39.5,43.1
			c0.9,2.7,2.2,5.2,3.7,7.6L30,37.8c-7-6.8-8.3-13.3-6.9-17.4c0,0,4.6-14.3,10.8-15l21.2-3c-12,6-20.3,22.2-16.5,37.8
			c-4.9-3.9-9.5-8.1-13.7-12.7c-0.5-0.6-1-0.3-0.6,0.2C28.9,33.4,33.9,38.5,39.5,43.1 M44.1,44.3C39.3,29,45.6,12.3,58.9,5
			c6.5-3.2,9.2-3.3,14.2-1.7c2.9,1,6,2.4,8.8,3.6l-0.5,12.2H81l0.1-7.3c-12.3,4.4-18.3,18.9-18.3,26.4c0,8.3-0.3,10.9,6,17.2h-3.7
			c0-0.2,0.2-0.3,0.5-0.3s0.9-0.4-0.4-0.7C62.4,53.6,49.9,49.1,44.1,44.3 M85.7,53.3l0.9-38.1C86.5,14.1,87,13,88,12.5
			c7.9-4.5,38.8-1.6,47.4,3.9c0.6,0.3,1,0.9,1.1,1.6c-8.6-3.3-17.8-4.7-26.9-4l2.7,15.3c8.1,0.1,16.2,0.9,24.1,2.6l-16.7,0.3
			c-0.9,0-1.5,0.4-1.1,1.3c12.3-0.5,24.6-0.3,36.8,0.5l-0.8,1.3c-10.8-0.5-26.7-1.8-37.4,0c12.6,0.4,25,0.2,37.5,1.2l-0.4,22
			c-1.6,0-2.4-0.2-2.9,0s-0.4,0.7-0.4,1.8l-12.4-0.2c-6.8-7.3-14.5-10.1-23.3-8.1l0.2-18.5L101.8,34c-1.2,0-1.2,0.8,0,0.8l12,0.4
			l-0.4,17.5l-2.8,1.3L85.7,53.3z M99.6,78c0,0-1.7-18.1,13.8-24c13.2-5,20.1,4.4,23.2,8.1c0.6,1,1.8,1.6,3,1.4l11.3,0.3v2.2
			c0,0.8,0.3,0.9,1.3,0.9l8.4,0.2c0.4-2.2,0.4-4.4,0.1-6.6c-0.1-0.8-0.5-1.6-0.9-1.7l-3.3-0.2l0.8-22.4c0.1-1,1-1.9,2.1-1.9
			c4,0.1,13,0.6,18.3,2.9c1.3,0.6,2.2,1.9,2.3,3.3l-0.8,28.3h-0.9l0.8-26.5l-14.5-2.1c-0.7-0.1-0.9,0.1-1,0.9l-0.8,26.4H161
			c-0.7,0-0.7,0.4-0.7,0.7v1.2c-8.8,0-17.4-0.2-26-0.3c-2.8-8.2-12.9-18-21.7-12.5c-9.9,6.1-11.1,15.5-10.9,21L99.6,78z"/>
	</g>
</g>
</svg>
